<svg width="28" height="28" viewBox="0 0 28 28" fill="none" xmlns="http://www.w3.org/2000/svg">
<path d="M18.0433 12.4764L21.5452 4.96638C22.0205 4.04513 21.6197 2.94393 20.6635 2.54373L19.0113 1.77329C18.09 1.298 16.9888 1.6988 16.5886 2.65506L13.0866 10.1651L5.52154 6.68315C4.6003 6.20785 3.4991 6.60866 3.0989 7.56492L2.32846 9.21713C1.85316 10.1384 2.25397 11.2396 3.21023 11.6398L10.7203 15.1418L7.23832 22.7069C6.76302 23.6281 7.16383 24.7293 8.12009 25.1295L9.7723 25.8999C10.6935 26.3752 11.7947 25.9744 12.1949 25.0182L15.752 17.4881L23.262 20.9901C24.1833 21.4654 25.2845 21.0646 25.6847 20.1083L26.4551 18.4561C26.9304 17.5349 26.5296 16.4337 25.5733 16.0335L18.0433 12.4764Z" fill="white" fill-opacity="0.4"/>
</svg>
