<svg width="100" height="100" viewBox="0 0 100 100" fill="none" xmlns="http://www.w3.org/2000/svg">
<path d="M63.0629 44.9795L75.9035 17.4427C77.6462 14.0648 76.1766 10.027 72.6703 8.55965L66.6122 5.73471C63.2343 3.99195 59.1966 5.46157 57.7292 8.96787L44.8886 36.5047L17.1499 23.7375C13.772 21.9948 9.73424 23.4644 8.26685 26.9707L5.44191 33.0288C3.69915 36.4067 5.16877 40.4444 8.67507 41.9118L36.2119 54.7524L23.4447 82.4911C21.702 85.869 23.1716 89.9068 26.6779 91.3742L32.736 94.1991C36.1139 95.9419 40.1516 94.4722 41.619 90.9659L54.6615 63.3557L82.1983 76.1963C85.5762 77.939 89.614 76.4694 91.0814 72.9631L93.9063 66.905C95.6491 63.5271 94.1794 59.4894 90.6731 58.022L63.0629 44.9795Z" fill="white" fill-opacity="0.4"/>
</svg>
